# xmcd
# 
# Track frame offsets:
#     150
#     9937
#     22299
#     33492
#     48604
#     62187
#     72205
#     86366
#     101292
#     113688
#     127161
#     149723
#     157571
#     170946
# 
# Disc length: 2387
# 
# Revision: 2
# Processed by: cddbd v1.5.2PL0 Copyright (c) Steve Scherf et al.
# Submitted via: fre:ac v1.0.17
# 
DISCID=c009510e
DTITLE=Various Artist - Fado and The City CD2
DYEAR=2000
DGENRE=Fado
TTITLE0=Lenita Gentil - Canto O Fado
TTITLE1=Ridrigo - Marques De Linda A Velha
TTITLE2=Ma. Do Rosario bettencourt - Um Deus, Um Homem Ou Uma Flor
TTITLE3=Carlos Macedo - Minha Mae E Pobrezinha
TTITLE4=Maria Da Fe - Lencois De Nada
TTITLE5=Jaime Santos - Dancas Portuguesas
TTITLE6=Ada De Castro - Jamais Negarei
TTITLE7=Manuel De Almeida - Fado De Despedida
TTITLE8=Fernando Pinto - A Minha Vida
TTITLE9=Natalino De Jesus - Quero Ser Como Sou
TTITLE10=Cidalia Moreira - Balada Para Uma Velhinha
TTITLE11=Manuel Fernandes - Moldura Dos Meus Olhos
TTITLE12=Antonio Chainho - Variacoes Em Mi Menor
TTITLE13=Florinda Maria - Cada Dia Que Passa
EXTD=
EXTT0=
EXTT1=
EXTT2=
EXTT3=
EXTT4=
EXTT5=
EXTT6=
EXTT7=
EXTT8=
EXTT9=
EXTT10=
EXTT11=
EXTT12=
EXTT13=
PLAYORDER=
